<?xml version="1.0" encoding="UTF-8" standalone="no"?>
<svg
   width="124.84947mm"
   height="45.207703mm"
   viewBox="0 0 124.84947 45.207703"
   version="1.1"
   id="svg1"
   sodipodi:docname="logo3.svg"
   inkscape:version="1.3 (0e150ed, 2023-07-21)"
   xmlns:inkscape="http://www.inkscape.org/namespaces/inkscape"
   xmlns:sodipodi="http://sodipodi.sourceforge.net/DTD/sodipodi-0.dtd"
   xmlns="http://www.w3.org/2000/svg"
   xmlns:svg="http://www.w3.org/2000/svg">
  <sodipodi:namedview
     id="namedview1"
     pagecolor="#ffffff"
     bordercolor="#666666"
     borderopacity="1.0"
     inkscape:showpageshadow="2"
     inkscape:pageopacity="0.0"
     inkscape:pagecheckerboard="0"
     inkscape:deskcolor="#d1d1d1"
     inkscape:document-units="mm"
     inkscape:zoom="1.3105605"
     inkscape:cx="345.27211"
     inkscape:cy="81.644456"
     inkscape:window-width="2304"
     inkscape:window-height="1243"
     inkscape:window-x="0"
     inkscape:window-y="25"
     inkscape:window-maximized="0"
     inkscape:current-layer="svg1" />
  <defs
     id="defs1" />
  <g
     id="g2"
     transform="matrix(0.7722475,0,0,0.7722475,13.818746,5.7707303)">
    <circle
       style="fill:#c83737;fill-opacity:0.881902;stroke:#ffffff;stroke-width:0.603999;stroke-miterlimit:9;paint-order:stroke markers fill"
       id="path3-9"
       cx="22.128517"
       cy="22.552681"
       r="21.826517" />
    <circle
       style="fill:#d35f5f;fill-opacity:0.81135;stroke:#ffffff;stroke-width:0.603999;stroke-miterlimit:9;paint-order:stroke markers fill"
       id="path3-7"
       cx="46.712822"
       cy="22.128517"
       r="21.826517" />
    <circle
       style="fill:#de8787;fill-opacity:0.812883;stroke:#ffffff;stroke-width:0.603999;stroke-miterlimit:9;paint-order:stroke markers fill"
       id="path3-2"
       cx="73.03833"
       cy="23.079185"
       r="21.826517" />
    <circle
       style="fill:#e9afaf;fill-opacity:0.848159;stroke:#ffffff;stroke-width:0.603999;stroke-miterlimit:9;paint-order:stroke markers fill"
       id="path3-0"
       cx="102.72095"
       cy="22.244194"
       r="21.826517" />
    <path
       style="font-weight:bold;font-size:15.3784px;line-height:1.3;font-family:Futura;-inkscape-font-specification:'Futura, Bold';fill:#f5f3ee;stroke-width:0.395626"
       d="m 104.6458,17.701055 h 3.84021 v 10.82432 h -3.84021 v -1.20271 q -1.22381,1.54032 -3.31271,1.54032 -1.1816,0 -2.173312,-0.42201 -0.99169,-0.44311 -1.73019,-1.2238 -0.73851,-0.7807 -1.16051,-1.83571 -0.4009,-1.055 -0.4009,-2.29991 0,-1.16049 0.4009,-2.19439 0.40089,-1.055 1.11831,-1.8357 0.71739,-0.7807 1.7091,-1.22381 0.991692,-0.46419 2.194402,-0.46419 2.02561,0 3.35491,1.4137 z"
       id="path35-7-6-3-5" />
    <path
       style="font-weight:bold;font-size:15.3784px;line-height:1.3;font-family:Futura;-inkscape-font-specification:'Futura, Bold';fill:#800000;fill-opacity:1;stroke-width:0.395626"
       d="m 99.834978,23.081555 q 0,0.52751 0.189902,0.99171 0.1899,0.44311 0.5064,0.7807 0.33757,0.33761 0.7807,0.5275 0.46421,0.18991 0.99171,0.18991 0.5064,0 0.94949,-0.18991 0.46421,-0.18989 0.7807,-0.5275 0.33762,-0.33759 0.5275,-0.7807 0.21099,-0.4431 0.21099,-0.9495 0,-0.5064 -0.21099,-0.94951 -0.1899,-0.46418 -0.5275,-0.80179 -0.31649,-0.3376 -0.7807,-0.5275 -0.44312,-0.1899 -0.94949,-0.1899 -0.5275,0 -0.99171,0.1899 -0.44312,0.1899 -0.7807,0.5275 -0.31649,0.3376 -0.5064,0.78071 -0.189902,0.42199 -0.189902,0.92838 z"
       id="path34-6-7-0-8" />
    <path
       style="font-weight:bold;font-size:15.3784px;line-height:1.3;font-family:Futura;-inkscape-font-specification:'Futura, Bold';fill:#f5f3ee;fill-opacity:1;stroke-width:0.395626"
       d="m 94.116878,21.203675 q -0.99169,-0.67521 -2.0045,-0.67521 -0.54861,0 -1.0339,0.18989 -0.46421,0.18991 -0.82291,0.54861 -0.35871,0.33761 -0.56969,0.8229 -0.1899,0.46419 -0.1899,1.055 0,0.56972 0.1899,1.055 0.21099,0.46422 0.54859,0.82292 0.35871,0.33759 0.84401,0.5275 0.48529,0.18989 1.0339,0.18989 1.0761,0 2.0045,-0.7385 v 3.24939 q -1.4137,0.61191 -2.67971,0.61191 -1.1816,0 -2.25771,-0.40089 -1.05499,-0.4009 -1.87788,-1.13941 -0.80181,-0.7596 -1.28711,-1.7935 -0.4853,-1.055 -0.4853,-2.3421 0,-1.28711 0.4642,-2.34212 0.46421,-1.07609 1.266,-1.8357 0.8018,-0.7807 1.89901,-1.2027 1.11829,-0.4431 2.3843,-0.4431 1.3926,0 2.5742,0.5908 z"
       id="path33-8-8-0-1" />
    <path
       style="font-weight:bold;font-size:15.3784px;line-height:1.3;font-family:Futura;-inkscape-font-specification:'Futura, Bold';fill:#f5f3ee;fill-opacity:1;stroke-width:0.395626"
       d="m 79.26248,13.544355 q 0,-0.4431 0.16882,-0.8229 0.16881,-0.40091 0.4642,-0.69631 0.2954,-0.29539 0.6752,-0.46419 0.4009,-0.16881 0.84401,-0.16881 0.443118,0 0.822908,0.16881 0.40089,0.1688 0.69629,0.46419 0.2954,0.29541 0.46421,0.69631 0.16881,0.37979 0.16881,0.8229 0,0.44309 -0.16881,0.84399 -0.16881,0.37981 -0.46421,0.67521 -0.2954,0.2954 -0.69629,0.4642 -0.3798,0.1688 -0.822908,0.1688 -0.44311,0 -0.84401,-0.1688 -0.3798,-0.1688 -0.6752,-0.4642 -0.29539,-0.29539 -0.4642,-0.67521 -0.16882,-0.4009 -0.16882,-0.84399 z"
       id="path32-6-0-3-4" />
    <path
       style="font-weight:bold;font-size:15.3784px;line-height:1.3;font-family:Futura;-inkscape-font-specification:'Futura, Bold';fill:#f5f3ee;fill-opacity:1;stroke-width:0.395626"
       d="m 83.334788,17.701055 v 10.82432 H 79.51569 v -10.82432 z"
       id="path31-7-6-8-7" />
    <path
       style="font-weight:bold;font-size:15.3784px;line-height:1.3;font-family:Futura;-inkscape-font-specification:'Futura, Bold';fill:#f5f3ee;fill-opacity:1;stroke-width:0.395626"
       d="m 75.6122,20.887165 v 7.63821 h -3.81911 v -7.63821 h -1.266 v -3.18611 h 1.266 v -3.2494 h 3.81911 v 3.2494 h 2.17331 v 3.18611 z"
       id="path30-1-5-3-1" />
    <g
       id="g1">
      <path
         style="font-weight:bold;font-size:15.3784px;line-height:1.3;font-family:Futura;-inkscape-font-specification:'Futura, Bold';fill:#f9f9f9;fill-opacity:1;stroke-width:0.395626"
         d="m 69.77997,14.579626 -3.67141,3.2494 -1.7724,-1.3082 3.01731,-3.69251 z"
         id="path29-8-7-6-3" />
      <path
         style="font-weight:bold;font-size:15.3784px;line-height:1.3;font-family:Futura;-inkscape-font-specification:'Futura, Bold';fill:#f5f3ee;fill-opacity:1;stroke-width:0.395626"
         d="m 68.00757,19.411526 v 10.82434 h -3.81911 v -10.82434 z"
         id="path28-4-3-0-8" />
    </g>
    <path
       style="font-weight:bold;font-size:15.3784px;line-height:1.3;font-family:Futura;-inkscape-font-specification:'Futura, Bold';fill:#f5f3ee;fill-opacity:1;stroke-width:0.395626"
       d="m 55.103031,17.701055 h 3.819107 v 1.77241 q 0.61189,-0.97061 1.498102,-1.477 0.8862,-0.52751 2.0678,-0.52751 0.14773,0 0.31649,0 0.1899,0 0.42203,0.0423 v 3.65031 q -0.7596,-0.3798 -1.6458,-0.3798 -1.329302,0 -2.004512,0.8018 -0.65409,0.7807 -0.65409,2.29991 v 4.642 H 55.10305 Z"
       id="path27-9-4-4-4" />
    <path
       style="font-weight:bold;font-size:15.3784px;line-height:1.3;font-family:Futura;-inkscape-font-specification:'Futura, Bold';fill:#f5f3ee;fill-opacity:1;stroke-width:0.395626"
       d="m 52.929736,21.203675 q -0.991711,-0.67521 -2.004507,-0.67521 -0.548603,0 -1.0339,0.18989 -0.464207,0.18991 -0.822905,0.54861 -0.358712,0.33761 -0.569707,0.8229 -0.1899,0.46419 -0.1899,1.055 0,0.56972 0.1899,1.055 0.210991,0.46422 0.548604,0.82292 0.358711,0.33759 0.844008,0.5275 0.485297,0.18989 1.0339,0.18989 1.076103,0 2.004507,-0.7385 v 3.24939 q -1.41371,0.61191 -2.679709,0.61191 -1.181603,0 -2.257705,-0.40089 -1.055004,-0.4009 -1.877909,-1.13941 -0.801801,-0.7596 -1.287098,-1.7935 -0.48531,-1.055 -0.48531,-2.3421 0,-1.28711 0.464207,-2.34212 0.464207,-1.07609 1.265998,-1.8357 0.801816,-0.7807 1.899008,-1.2027 1.11831,-0.4431 2.384304,-0.4431 1.392612,0 2.574214,0.5908 z"
       id="path26-7-3-0-8" />
    <path
       style="font-weight:bold;font-size:15.3784px;line-height:1.3;font-family:Futura;-inkscape-font-specification:'Futura, Bold';fill:#f5f3ee;fill-opacity:1;stroke-width:0.395626"
       d="m 31.15456,17.701055 h 3.840209 v 10.82432 H 31.15456 v -1.20271 q -1.223805,1.54032 -3.312704,1.54032 -1.181603,0 -2.173314,-0.42201 -0.991692,-0.44311 -1.730206,-1.2238 -0.738494,-0.7807 -1.160498,-1.83571 -0.400892,-1.055 -0.400892,-2.29991 0,-1.16049 0.400892,-2.19439 0.400891,-1.055 1.11831,-1.8357 0.717395,-0.7807 1.709102,-1.22381 0.991697,-0.46419 2.194398,-0.46419 2.025612,0 3.354912,1.4137 z"
       id="path25-3-0-9-0" />
    <path
       style="font-weight:bold;font-size:15.3784px;line-height:1.3;font-family:Futura;-inkscape-font-specification:'Futura, Bold';fill:#aa0000;fill-opacity:1;stroke-width:0.395626"
       d="m 26.343744,23.081555 q 0,0.52751 0.189901,0.99171 0.189901,0.44311 0.506396,0.7807 0.337575,0.33761 0.780702,0.5275 0.464207,0.18991 0.991692,0.18991 0.506415,0 0.949509,-0.18991 0.464207,-0.18989 0.780697,-0.5275 0.337622,-0.33759 0.527504,-0.7807 0.210991,-0.4431 0.210991,-0.9495 0,-0.5064 -0.210991,-0.94951 -0.189901,-0.46418 -0.527504,-0.80179 -0.316486,-0.3376 -0.780697,-0.5275 -0.443118,-0.1899 -0.949509,-0.1899 -0.527499,0 -0.991692,0.1899 -0.443118,0.1899 -0.780702,0.5275 -0.316486,0.3376 -0.506396,0.78071 -0.189901,0.42199 -0.189901,0.92838 z"
       id="path24-1-4-2-4" />
    <path
       style="font-weight:bold;font-size:15.3784px;line-height:1.3;font-family:Futura;-inkscape-font-specification:'Futura, Bold';fill:#f5f3ee;fill-opacity:1;stroke-width:0.395626"
       d="m 20.182566,11.012345 v 17.51303 h -3.819109 v -17.51303 z"
       id="text1-39-0-8-4-6" />
    <text
       xml:space="preserve"
       style="font-style:normal;font-variant:normal;font-weight:bold;font-stretch:normal;font-size:7.04328px;line-height:1.3;font-family:Futura;-inkscape-font-specification:'Futura, Bold';font-variant-ligatures:normal;font-variant-caps:normal;font-variant-numeric:normal;font-variant-east-asian:normal;text-align:start;writing-mode:lr-tb;direction:ltr;text-anchor:start;fill:#f5f3ee;fill-opacity:1;stroke-width:0.132061"
       x="71.857445"
       y="34.124924"
       id="text4-52-2-7-9-0"><tspan
         id="tspan4-2-3-5-2-3"
         style="font-style:normal;font-variant:normal;font-weight:300;font-stretch:normal;font-size:7.04328px;font-family:'Futura Std';-inkscape-font-specification:'Futura Std, Light';font-variant-ligatures:normal;font-variant-caps:normal;font-variant-numeric:normal;font-variant-east-asian:normal;fill:#f5f3ee;fill-opacity:1;stroke-width:0.132061"
         x="71.857445"
         y="34.124924">del derecho</tspan></text>
    <rect
       style="fill:#f5f3ee;fill-opacity:1;stroke-width:0.0749218"
       id="rect5-7-7-9-9-2"
       width="90.937332"
       height="0.32999176"
       x="16.55233"
       y="23.029251" />
  </g>
</svg>
