<svg
   width="124.84947mm"
   height="45.207703mm"
   viewBox="0 0 124.84947 45.207703"
   version="1.1"
   id="svg1"
   xmlns="http://www.w3.org/2000/svg"
   xmlns:svg="http://www.w3.org/2000/svg">
  <defs
     id="defs1" />
  <g
     id="layer1"
     transform="translate(-12.700005,-47.889586)">
    <g
       id="g23"
       transform="translate(-5.536957,34.419638)">
      <circle
         style="fill:#4daec7;fill-opacity:0.881902;stroke:#ffffff;stroke-width:0.603999;stroke-miterlimit:9;paint-order:stroke markers fill"
         id="path3-9"
         cx="40.365479"
         cy="36.022629"
         r="21.826517" />
      <circle
         style="fill:#4daec7;fill-opacity:0.81135;stroke:#ffffff;stroke-width:0.603999;stroke-miterlimit:9;paint-order:stroke markers fill"
         id="path3-7"
         cx="64.949783"
         cy="35.598465"
         r="21.826517" />
      <circle
         style="fill:#4daec7;fill-opacity:0.812883;stroke:#ffffff;stroke-width:0.603999;stroke-miterlimit:9;paint-order:stroke markers fill"
         id="path3-2"
         cx="91.275291"
         cy="36.549133"
         r="21.826517" />
      <circle
         style="fill:#4daec7;fill-opacity:0.848159;stroke:#ffffff;stroke-width:0.603999;stroke-miterlimit:9;paint-order:stroke markers fill"
         id="path3-0"
         cx="120.95792"
         cy="35.714142"
         r="21.826517" />
      <path
         style="font-weight:bold;font-size:15.3784px;line-height:1.3;font-family:Futura;-inkscape-font-specification:'Futura, Bold';fill:#f5f3ee;stroke-width:0.395626"
         d="m 122.88276,31.171003 h 3.84021 v 10.82432 h -3.84021 v -1.20271 q -1.22381,1.54032 -3.31271,1.54032 -1.1816,0 -2.17331,-0.42201 -0.99169,-0.44311 -1.73019,-1.2238 -0.73851,-0.7807 -1.16051,-1.83571 -0.4009,-1.055 -0.4009,-2.29991 0,-1.16049 0.4009,-2.19439 0.40089,-1.055 1.11831,-1.8357 0.71739,-0.7807 1.7091,-1.22381 0.99169,-0.46419 2.1944,-0.46419 2.02561,0 3.35491,1.4137 z"
         id="path35-7-6-3-5" />
      <path
         style="font-weight:bold;font-size:15.3784px;line-height:1.3;font-family:Futura;-inkscape-font-specification:'Futura, Bold';fill:#b8165f;fill-opacity:1;stroke-width:0.395626"
         d="m 118.07194,36.551503 q 0,0.52751 0.1899,0.99171 0.1899,0.44311 0.5064,0.7807 0.33757,0.33761 0.7807,0.5275 0.46421,0.18991 0.99171,0.18991 0.5064,0 0.94949,-0.18991 0.46421,-0.18989 0.7807,-0.5275 0.33762,-0.33759 0.5275,-0.7807 0.21099,-0.4431 0.21099,-0.9495 0,-0.5064 -0.21099,-0.94951 -0.1899,-0.46418 -0.5275,-0.80179 -0.31649,-0.3376 -0.7807,-0.5275 -0.44312,-0.1899 -0.94949,-0.1899 -0.5275,0 -0.99171,0.1899 -0.44312,0.1899 -0.7807,0.5275 -0.31649,0.3376 -0.5064,0.78071 -0.1899,0.42199 -0.1899,0.92838 z"
         id="path34-6-7-0-8" />
      <path
         style="font-weight:bold;font-size:15.3784px;line-height:1.3;font-family:Futura;-inkscape-font-specification:'Futura, Bold';fill:#f5f3ee;fill-opacity:1;stroke-width:0.395626"
         d="m 112.35384,34.673623 q -0.99169,-0.67521 -2.0045,-0.67521 -0.54861,0 -1.0339,0.18989 -0.46421,0.18991 -0.82291,0.54861 -0.35871,0.33761 -0.56969,0.8229 -0.1899,0.46419 -0.1899,1.055 0,0.56972 0.1899,1.055 0.21099,0.46422 0.54859,0.82292 0.35871,0.33759 0.84401,0.5275 0.48529,0.18989 1.0339,0.18989 1.0761,0 2.0045,-0.7385 v 3.24939 q -1.4137,0.61191 -2.67971,0.61191 -1.1816,0 -2.25771,-0.40089 -1.05499,-0.4009 -1.87788,-1.13941 -0.80181,-0.7596 -1.28711,-1.7935 -0.4853,-1.055 -0.4853,-2.3421 0,-1.28711 0.4642,-2.34212 0.46421,-1.07609 1.266,-1.8357 0.8018,-0.7807 1.89901,-1.2027 1.11829,-0.4431 2.3843,-0.4431 1.3926,0 2.5742,0.5908 z"
         id="path33-8-8-0-1" />
      <path
         style="font-weight:bold;font-size:15.3784px;line-height:1.3;font-family:Futura;-inkscape-font-specification:'Futura, Bold';fill:#f5f3ee;fill-opacity:1;stroke-width:0.395626"
         d="m 97.499442,27.014303 q 0,-0.4431 0.16882,-0.8229 0.16881,-0.40091 0.4642,-0.69631 0.2954,-0.29539 0.6752,-0.46419 0.4009,-0.16881 0.84401,-0.16881 0.443118,0 0.822908,0.16881 0.40089,0.1688 0.69629,0.46419 0.2954,0.29541 0.46421,0.69631 0.16881,0.37979 0.16881,0.8229 0,0.44309 -0.16881,0.84399 -0.16881,0.37981 -0.46421,0.67521 -0.2954,0.2954 -0.69629,0.4642 -0.3798,0.1688 -0.822908,0.1688 -0.44311,0 -0.84401,-0.1688 -0.3798,-0.1688 -0.6752,-0.4642 -0.29539,-0.29539 -0.4642,-0.67521 -0.16882,-0.4009 -0.16882,-0.84399 z"
         id="path32-6-0-3-4" />
      <path
         style="font-weight:bold;font-size:15.3784px;line-height:1.3;font-family:Futura;-inkscape-font-specification:'Futura, Bold';fill:#f5f3ee;fill-opacity:1;stroke-width:0.395626"
         d="m 101.57175,31.171003 v 10.82432 h -3.819098 v -10.82432 z"
         id="path31-7-6-8-7" />
      <path
         style="font-weight:bold;font-size:15.3784px;line-height:1.3;font-family:Futura;-inkscape-font-specification:'Futura, Bold';fill:#f5f3ee;fill-opacity:1;stroke-width:0.395626"
         d="m 93.849162,34.357113 v 7.63821 h -3.81911 v -7.63821 h -1.266 v -3.18611 h 1.266 v -3.2494 h 3.81911 v 3.2494 h 2.17331 v 3.18611 z"
         id="path30-1-5-3-1" />
      <path
         style="font-weight:bold;font-size:15.3784px;line-height:1.3;font-family:Futura;-inkscape-font-specification:'Futura, Bold';fill:#f9f9f9;fill-opacity:1;stroke-width:0.395626"
         d="m 88.016932,31.753743 -3.67141,3.2494 -1.7724,-1.3082 3.01731,-3.69251 z"
         id="path29-8-7-6-3" />
      <path
         style="font-weight:bold;font-size:15.3784px;line-height:1.3;font-family:Futura;-inkscape-font-specification:'Futura, Bold';fill:#f5f3ee;fill-opacity:1;stroke-width:0.395626"
         d="m 86.244532,36.585643 v 10.82434 h -3.81911 v -10.82434 z"
         id="path28-4-3-0-8" />
      <path
         style="font-weight:bold;font-size:15.3784px;line-height:1.3;font-family:Futura;-inkscape-font-specification:'Futura, Bold';fill:#f5f3ee;fill-opacity:1;stroke-width:0.395626"
         d="M 73.339993,31.171003 H 77.1591 v 1.77241 q 0.61189,-0.97061 1.498102,-1.477 0.8862,-0.52751 2.0678,-0.52751 0.14773,0 0.31649,0 0.1899,0 0.42203,0.0423 v 3.65031 q -0.7596,-0.3798 -1.6458,-0.3798 -1.329302,0 -2.004512,0.8018 -0.65409,0.7807 -0.65409,2.29991 v 4.642 h -3.819108 z"
         id="path27-9-4-4-4" />
      <path
         style="font-weight:bold;font-size:15.3784px;line-height:1.3;font-family:Futura;-inkscape-font-specification:'Futura, Bold';fill:#f5f3ee;fill-opacity:1;stroke-width:0.395626"
         d="m 71.166698,34.673623 q -0.991711,-0.67521 -2.004507,-0.67521 -0.548603,0 -1.0339,0.18989 -0.464207,0.18991 -0.822905,0.54861 -0.358712,0.33761 -0.569707,0.8229 -0.1899,0.46419 -0.1899,1.055 0,0.56972 0.1899,1.055 0.210991,0.46422 0.548604,0.82292 0.358711,0.33759 0.844008,0.5275 0.485297,0.18989 1.0339,0.18989 1.076103,0 2.004507,-0.7385 v 3.24939 q -1.41371,0.61191 -2.679709,0.61191 -1.181603,0 -2.257705,-0.40089 -1.055004,-0.4009 -1.877909,-1.13941 -0.801801,-0.7596 -1.287098,-1.7935 -0.48531,-1.055 -0.48531,-2.3421 0,-1.28711 0.464207,-2.34212 0.464207,-1.07609 1.265998,-1.8357 0.801816,-0.7807 1.899008,-1.2027 1.11831,-0.4431 2.384304,-0.4431 1.392612,0 2.574214,0.5908 z"
         id="path26-7-3-0-8" />
      <path
         style="font-weight:bold;font-size:15.3784px;line-height:1.3;font-family:Futura;-inkscape-font-specification:'Futura, Bold';fill:#f5f3ee;fill-opacity:1;stroke-width:0.395626"
         d="m 49.391522,31.171003 h 3.840209 v 10.82432 h -3.840209 v -1.20271 q -1.223805,1.54032 -3.312704,1.54032 -1.181603,0 -2.173314,-0.42201 -0.991692,-0.44311 -1.730206,-1.2238 -0.738494,-0.7807 -1.160498,-1.83571 -0.400892,-1.055 -0.400892,-2.29991 0,-1.16049 0.400892,-2.19439 0.400891,-1.055 1.11831,-1.8357 0.717395,-0.7807 1.709102,-1.22381 0.991697,-0.46419 2.194398,-0.46419 2.025612,0 3.354912,1.4137 z"
         id="path25-3-0-9-0" />
      <path
         style="font-weight:bold;font-size:15.3784px;line-height:1.3;font-family:Futura;-inkscape-font-specification:'Futura, Bold';fill:#b8165f;fill-opacity:1;stroke-width:0.395626"
         d="m 44.580706,36.551503 q 0,0.52751 0.189901,0.99171 0.189901,0.44311 0.506396,0.7807 0.337575,0.33761 0.780702,0.5275 0.464207,0.18991 0.991692,0.18991 0.506415,0 0.949509,-0.18991 0.464207,-0.18989 0.780697,-0.5275 0.337622,-0.33759 0.527504,-0.7807 0.210991,-0.4431 0.210991,-0.9495 0,-0.5064 -0.210991,-0.94951 -0.189901,-0.46418 -0.527504,-0.80179 -0.316486,-0.3376 -0.780697,-0.5275 -0.443118,-0.1899 -0.949509,-0.1899 -0.527499,0 -0.991692,0.1899 -0.443118,0.1899 -0.780702,0.5275 -0.316486,0.3376 -0.506396,0.78071 -0.189901,0.42199 -0.189901,0.92838 z"
         id="path24-1-4-2-4" />
      <path
         style="font-weight:bold;font-size:15.3784px;line-height:1.3;font-family:Futura;-inkscape-font-specification:'Futura, Bold';fill:#f5f3ee;fill-opacity:1;stroke-width:0.395626"
         d="m 38.419528,24.482293 v 17.51303 h -3.819109 v -17.51303 z"
         id="text1-39-0-8-4-6" />
      <text
         xml:space="preserve"
         style="font-style:normal;font-variant:normal;font-weight:bold;font-stretch:normal;font-size:7.04328px;line-height:1.3;font-family:Futura;-inkscape-font-specification:'Futura, Bold';font-variant-ligatures:normal;font-variant-caps:normal;font-variant-numeric:normal;font-variant-east-asian:normal;text-align:start;writing-mode:lr-tb;direction:ltr;text-anchor:start;fill:#f5f3ee;fill-opacity:1;stroke-width:0.132061"
         x="90.094406"
         y="47.594872"
         id="text4-52-2-7-9-0"><tspan
           id="tspan4-2-3-5-2-3"
           style="font-style:normal;font-variant:normal;font-weight:300;font-stretch:normal;font-size:7.04328px;font-family:'Futura Std';-inkscape-font-specification:'Futura Std, Light';font-variant-ligatures:normal;font-variant-caps:normal;font-variant-numeric:normal;font-variant-east-asian:normal;fill:#f5f3ee;fill-opacity:1;stroke-width:0.132061"
           x="90.094406"
           y="47.594872">del derecho</tspan></text>
      <rect
         style="fill:#f5f3ee;fill-opacity:1;stroke-width:0.0749218"
         id="rect5-7-7-9-9-2"
         width="90.937332"
         height="0.32999176"
         x="34.789291"
         y="36.499199" />
    </g>
  </g>
</svg>
