<?xml version="1.0" encoding="UTF-8" standalone="no"?>
<!-- Created with Inkscape (http://www.inkscape.org/) -->

<svg
   version="1.1"
   id="svg9"
   width="666.66669"
   height="666.66718"
   viewBox="0 0 666.66668 666.66717"
   sodipodi:docname="facebook.svg"
   inkscape:version="1.3 (0e150ed, 2023-07-21)"
   xmlns:inkscape="http://www.inkscape.org/namespaces/inkscape"
   xmlns:sodipodi="http://sodipodi.sourceforge.net/DTD/sodipodi-0.dtd"
   xmlns="http://www.w3.org/2000/svg"
   xmlns:svg="http://www.w3.org/2000/svg">
  <sodipodi:namedview
     id="namedview1"
     pagecolor="#ffffff"
     bordercolor="#666666"
     borderopacity="1.0"
     inkscape:showpageshadow="2"
     inkscape:pageopacity="0.0"
     inkscape:pagecheckerboard="0"
     inkscape:deskcolor="#d1d1d1"
     inkscape:zoom="0.74440899"
     inkscape:cx="655.55361"
     inkscape:cy="256.57939"
     inkscape:window-width="2304"
     inkscape:window-height="1243"
     inkscape:window-x="0"
     inkscape:window-y="25"
     inkscape:window-maximized="1"
     inkscape:current-layer="svg9" />
  <defs
     id="defs13">
    <clipPath
       clipPathUnits="userSpaceOnUse"
       id="clipPath4">
      <g
         id="g6">
        <g
           id="g5">
          <path
             d="M -133.33333,-133.33332 H 799.99998 V 799.99999 H -133.33333 Z"
             id="path4"
             style="stroke-width:1.33333" />
        </g>
      </g>
    </clipPath>
    <clipPath
       clipPathUnits="userSpaceOnUse"
       id="clipPath7">
      <g
         id="g9">
        <g
           id="g8">
          <path
             d="M -133.33333,-133.33332 H 799.99998 V 799.99999 H -133.33333 Z"
             id="path7"
             style="stroke-width:1.33333" />
        </g>
      </g>
    </clipPath>
  </defs>
  <path
     d="M 666.66665,333.33334 C 666.66665,149.23868 517.42799,1.5e-5 333.33332,1.5e-5 149.23866,1.5e-5 0,149.23868 0,333.33334 0,489.66 107.62,620.82933 252.80799,656.85067 v -221.656 H 184.072 V 333.33334 h 68.73599 v -43.892 c 0,-113.456 51.344,-166.04266 162.73067,-166.04266 21.11733,0 57.55599,4.14 72.46266,8.28133 v 92.33867 c -7.868,-0.828 -21.532,-1.24267 -38.50933,-1.24267 -54.65733,0 -75.776,20.704 -75.776,74.53333 v 36.024 h 108.87866 l -18.70399,101.86133 h -90.17467 v 229.03066 c 165.048,-19.93466 292.95066,-160.46799 292.95066,-330.89199"
     style="fill:#666666;fill-opacity:1;fill-rule:nonzero;stroke:none;stroke-width:1.33333"
     id="path29"
     clip-path="url(#clipPath4)" />
  <path
     d="M 463.88999,435.1952 482.59532,333.33387 H 373.71666 v -36.02533 c 0,-53.82934 21.11733,-74.532 75.77466,-74.532 16.97734,0 30.64134,0.41333 38.50934,1.24133 v -92.33733 c -14.90667,-4.14133 -51.34534,-8.28267 -72.46267,-8.28267 -111.38533,0 -162.73066,52.588 -162.73066,166.044 v 43.892 h -68.736 V 435.1952 h 68.736 v 221.65599 c 25.79066,6.39734 52.75733,9.816 80.52533,9.816 13.672,0 27.144,-0.84266 40.384,-2.44133 V 435.1952 Z"
     style="fill:#ffffff;fill-opacity:1;fill-rule:nonzero;stroke:none;stroke-width:1.33333"
     id="path33"
     clip-path="url(#clipPath7)" />
</svg>
