<?xml version="1.0" encoding="utf-8"?>
<!-- Generator: Adobe Illustrator 27.7.0, SVG Export Plug-In . SVG Version: 6.00 Build 0)  -->
<svg version="1.1" id="Layer_1" xmlns="http://www.w3.org/2000/svg" xmlns:xlink="http://www.w3.org/1999/xlink" x="0px" y="0px"
	 viewBox="0 0 100 100" style="enable-background:new 0 0 100 100;" xml:space="preserve">
<style type="text/css">
	.st0{fill:#009dca;}
	.st1{fill:#D12031;}
	.st2{fill:none;stroke:#FFFFFF;stroke-width:1.5;stroke-miterlimit:10;}
</style>
<g>
	<g>
		<path class="st0" d="M60.48,48.48l6.22-5.86l-27.64-15.2c-0.41-0.23-0.84-0.32-1.26-0.34L60.48,48.48z"/>
		<path class="st0" d="M35.07,28.57c-0.23,0.41-0.37,0.89-0.37,1.41v41.04c0,0.53,0.14,1,0.37,1.41l23.25-21.94L35.07,28.57z"/>
		<path class="st0" d="M76.38,47.94l-6.96-3.83l-6.78,6.4l6.78,6.4l6.96-3.83C78.41,51.97,78.41,49.05,76.38,47.94z"/>
		<path class="st0" d="M60.48,52.54l-22.69,21.4c0.42-0.02,0.85-0.12,1.26-0.34l27.64-15.2L60.48,52.54z"/>
	</g>
</g>
</svg>
