<?xml version="1.0" encoding="UTF-8" standalone="no"?>
<svg
   width="71.141411mm"
   height="17.903025mm"
   viewBox="0 0 75.14141 17.903025"
   version="1.1"
   id="svg1"
   sodipodi:docname="logo_unicolor.svg"
   inkscape:version="1.4 (e7c3feb1, 2024-10-09)"
   xmlns:inkscape="http://www.inkscape.org/namespaces/inkscape"
   xmlns:sodipodi="http://sodipodi.sourceforge.net/DTD/sodipodi-0.dtd"
   xmlns="http://www.w3.org/2000/svg"
   xmlns:svg="http://www.w3.org/2000/svg">
  <sodipodi:namedview
     id="namedview1"
     pagecolor="#ffffff"
     bordercolor="#000000"
     borderopacity="0.25"
     inkscape:showpageshadow="2"
     inkscape:pageopacity="0.0"
     inkscape:pagecheckerboard="0"
     inkscape:deskcolor="#d1d1d1"
     inkscape:document-units="mm"
     inkscape:zoom="1.5369842"
     inkscape:cx="125.24527"
     inkscape:cy="0.65062476"
     inkscape:window-width="1472"
     inkscape:window-height="895"
     inkscape:window-x="0"
     inkscape:window-y="33"
     inkscape:window-maximized="0"
     inkscape:current-layer="svg1" />
  <defs
     id="defs1" />
  <path
     style="font-weight:bold;font-size:15.3784px;line-height:1.3;font-family:Futura;-inkscape-font-specification:'Futura, Bold';fill:#666666;stroke-width:0.256649"
     d="m 62.96023,5.7709843 h 2.49121 v 7.0219207 h -2.49121 v -0.780219 q -0.793906,0.999232 -2.149011,0.999232 -0.766524,0 -1.409864,-0.273765 -0.643326,-0.287452 -1.122404,-0.793899 -0.479085,-0.506454 -0.752843,-1.190857 -0.26007,-0.684397 -0.26007,-1.4919912 0,-0.7528292 0.26007,-1.423538 0.260064,-0.6843964 0.725467,-1.1908493 0.465383,-0.5064537 1.108722,-0.793907 0.643328,-0.3011275 1.423546,-0.3011275 1.314048,0 2.176387,0.917091 z"
     id="path35-7-6-3-5" />
  <path
     style="font-weight:bold;font-size:15.3784px;line-height:1.3;font-family:Futura;-inkscape-font-specification:'Futura, Bold';fill:#f9f9f9;fill-opacity:1;stroke-width:0.256649"
     d="m 59.839368,9.2614058 q 0,0.3422053 0.123193,0.6433395 0.123191,0.2874537 0.32851,0.5064537 0.218987,0.219013 0.506453,0.342198 0.301141,0.123198 0.64334,0.123198 0.32851,0 0.61595,-0.123198 0.301141,-0.123185 0.506454,-0.342198 0.219019,-0.219 0.342197,-0.5064537 0.136874,-0.2874466 0.136874,-0.6159568 0,-0.3285102 -0.136874,-0.6159636 -0.12319,-0.3011216 -0.342197,-0.5201345 -0.205313,-0.2190071 -0.506454,-0.3421986 -0.287459,-0.1231907 -0.61595,-0.1231907 -0.342199,0 -0.64334,0.1231907 -0.287459,0.1231915 -0.506453,0.3421986 -0.205312,0.2190071 -0.32851,0.5064596 -0.123193,0.2737523 -0.123193,0.6022558 z"
     id="path34-6-7-0-8" />
  <path
     style="font-weight:bold;font-size:15.3784px;line-height:1.3;font-family:Futura;-inkscape-font-specification:'Futura, Bold';fill:#666666;fill-opacity:1;stroke-width:0.256649"
     d="m 56.129939,8.0431931 q -0.643326,-0.43802 -1.300353,-0.43802 -0.355893,0 -0.670709,0.1231848 -0.30114,0.1231983 -0.533835,0.3558929 -0.232702,0.219013 -0.369568,0.5338289 -0.123192,0.3011283 -0.123192,0.6843964 0,0.3695872 0.123192,0.6843972 0.136873,0.3011467 0.355879,0.5338417 0.232702,0.219 0.547524,0.342198 0.314816,0.123185 0.670709,0.123185 0.698084,0 1.300353,-0.479078 v 2.107936 q -0.917091,0.396956 -1.738374,0.396956 -0.766523,0 -1.464615,-0.260065 -0.684389,-0.26007 -1.218212,-0.739154 -0.520147,-0.492765 -0.83497,-1.163474 -0.314823,-0.684396 -0.314823,-1.5193602 0,-0.8349698 0.301135,-1.5193729 0.30114,-0.6980781 0.821276,-1.1908501 0.520141,-0.5064537 1.23192,-0.7802119 0.725453,-0.2874467 1.546736,-0.2874467 0.903403,0 1.669927,0.3832622 z"
     id="path33-8-8-0-1" />
  <path
     style="font-weight:bold;font-size:15.3784px;line-height:1.3;font-family:Futura;-inkscape-font-specification:'Futura, Bold';fill:#666666;fill-opacity:1;stroke-width:0.256649"
     d="m 46.493638,3.0744624 q 0,-0.2874467 0.109517,-0.5338297 0.10951,-0.2600774 0.301134,-0.4517085 0.191631,-0.1916243 0.438014,-0.3011275 0.260071,-0.1095098 0.547523,-0.1095098 0.287459,0 0.533835,0.1095098 0.260064,0.1095032 0.451695,0.3011275 0.191631,0.1916378 0.301141,0.4517085 0.10951,0.2463763 0.10951,0.5338297 0,0.2874399 -0.10951,0.5475105 -0.10951,0.246389 -0.301141,0.4380201 -0.191631,0.191631 -0.451695,0.3011342 -0.246383,0.1095039 -0.533835,0.1095039 -0.287452,0 -0.547523,-0.1095039 Q 47.09592,4.251624 46.904289,4.059993 46.712665,3.8683686 46.603155,3.6219729 46.493638,3.3619023 46.493638,3.0744624 Z"
     id="path32-6-0-3-4" />
  <path
     style="font-weight:bold;font-size:15.3784px;line-height:1.3;font-family:Futura;-inkscape-font-specification:'Futura, Bold';fill:#666666;fill-opacity:1;stroke-width:0.256649"
     d="M 49.135414,5.7709843 V 12.792905 H 46.6579 V 5.7709843 Z"
     id="path31-7-6-8-7" />
  <path
     style="font-weight:bold;font-size:15.3784px;line-height:1.3;font-family:Futura;-inkscape-font-specification:'Futura, Bold';fill:#666666;fill-opacity:1;stroke-width:0.256649"
     d="M 44.125639,7.8378678 V 12.792905 H 41.648117 V 7.8378678 H 40.826842 V 5.7709843 h 0.821275 V 3.6630432 h 2.477522 v 2.1079411 h 1.409864 v 2.0668835 z"
     id="path30-1-5-3-1" />
  <path
     style="font-weight:bold;font-size:15.3784px;line-height:1.3;font-family:Futura;-inkscape-font-specification:'Futura, Bold';fill:#666666;fill-opacity:1;stroke-width:0.256649"
     d="M 40.342172,3.7460599 37.960466,5.8540011 36.81068,5.0053496 38.768061,2.6099551 Z"
     id="path29-8-7-6-3" />
  <path
     style="font-weight:bold;font-size:15.3784px;line-height:1.3;font-family:Futura;-inkscape-font-specification:'Futura, Bold';fill:#666666;fill-opacity:1;stroke-width:0.256649"
     d="m 39.192386,6.880596 v 7.021933 H 36.714865 V 6.880596 Z"
     id="path28-4-3-0-8" />
  <path
     style="font-weight:bold;font-size:15.3784px;line-height:1.3;font-family:Futura;-inkscape-font-specification:'Futura, Bold';fill:#666666;fill-opacity:1;stroke-width:0.256649"
     d="m 30.820992,5.7709843 h 2.47752 v 1.1497924 q 0.396943,-0.6296511 0.971844,-0.9581554 0.574893,-0.3422045 1.341417,-0.3422045 0.09584,0 0.205312,0 0.123192,0 0.273779,0.027444 v 2.3680185 q -0.492766,-0.2463831 -1.067659,-0.2463831 -0.862341,0 -1.300361,0.5201413 -0.424319,0.5064537 -0.424319,1.491991 v 3.0113445 h -2.47752 z"
     id="path27-9-4-4-4" />
  <path
     style="font-weight:bold;font-size:15.3784px;line-height:1.3;font-family:Futura;-inkscape-font-specification:'Futura, Bold';fill:#666666;fill-opacity:1;stroke-width:0.256649"
     d="m 29.411138,8.0431931 q -0.643339,-0.43802 -1.300357,-0.43802 -0.355889,0 -0.670709,0.1231848 -0.301139,0.1231983 -0.533832,0.3558929 -0.232703,0.219013 -0.369579,0.5338289 -0.123191,0.3011283 -0.123191,0.6843964 0,0.3695872 0.123191,0.6843972 0.136873,0.3011467 0.355889,0.5338417 0.232702,0.219 0.547522,0.342198 0.31482,0.123185 0.670709,0.123185 0.698086,0 1.300357,-0.479078 v 2.107936 q -0.917097,0.396956 -1.738372,0.396956 -0.766526,0 -1.464612,-0.260065 -0.6844,-0.26007 -1.218232,-0.739154 -0.520142,-0.492765 -0.834962,-1.163474 -0.314828,-0.684396 -0.314828,-1.5193602 0,-0.8349698 0.301138,-1.5193729 0.301139,-0.6980781 0.821275,-1.1908501 0.520151,-0.5064537 1.231918,-0.7802119 0.725467,-0.2874467 1.546739,-0.2874467 0.903411,0 1.669936,0.3832622 z"
     id="path26-7-3-0-8" />
  <path
     style="font-weight:bold;font-size:15.3784px;line-height:1.3;font-family:Futura;-inkscape-font-specification:'Futura, Bold';fill:#666666;fill-opacity:1;stroke-width:0.256649"
     d="m 15.285211,5.7709843 h 2.491209 v 7.0219207 h -2.491209 v -0.780219 q -0.793903,0.999232 -2.149007,0.999232 -0.766526,0 -1.409867,-0.273765 Q 11.08301,12.450701 10.603923,11.944254 10.12485,11.4378 9.8510882,10.753397 9.5910235,10.069 9.5910235,9.2614058 q 0,-0.7528292 0.2600647,-1.423538 0.2600658,-0.6843964 0.7254678,-1.1908493 0.465386,-0.5064537 1.108723,-0.793907 0.643331,-0.3011275 1.423544,-0.3011275 1.314048,0 2.176388,0.917091 z"
     id="path25-3-0-9-0" />
  <path
     style="font-weight:bold;font-size:15.3784px;line-height:1.3;font-family:Futura;-inkscape-font-specification:'Futura, Bold';fill:#ffffff;fill-opacity:1;stroke-width:0.256649"
     d="m 12.164352,9.2614058 q 0,0.3422053 0.123193,0.6433395 0.123192,0.2874537 0.328507,0.5064537 0.218991,0.219013 0.506455,0.342198 0.301139,0.123198 0.643328,0.123198 0.32852,0 0.615962,-0.123198 0.30114,-0.123185 0.506451,-0.342198 0.219022,-0.219 0.342202,-0.5064537 0.136873,-0.2874466 0.136873,-0.6159568 0,-0.3285102 -0.136873,-0.6159636 Q 15.107257,8.3717033 14.888248,8.1526904 14.682939,7.9336833 14.381797,7.8104918 14.094339,7.6873011 13.765835,7.6873011 q -0.342198,0 -0.643328,0.1231907 -0.287459,0.1231915 -0.506455,0.3421986 -0.205309,0.2190071 -0.328507,0.5064596 -0.123193,0.2737523 -0.123193,0.6022558 z"
     id="path24-1-4-2-4" />
  <path
     style="font-weight:bold;font-size:15.3784px;line-height:1.3;font-family:Futura;-inkscape-font-specification:'Futura, Bold';fill:#666666;fill-opacity:1;stroke-width:0.256649"
     d="M 8.1674913,1.4319038 V 12.792905 H 5.6899706 V 1.4319038 Z"
     id="text1-39-0-8-4-6" />
  <text
     xml:space="preserve"
     style="font-style:normal;font-variant:normal;font-weight:bold;font-stretch:normal;font-size:4.5691px;line-height:1.3;font-family:Futura;-inkscape-font-specification:'Futura, Bold';font-variant-ligatures:normal;font-variant-caps:normal;font-variant-numeric:normal;font-variant-east-asian:normal;text-align:start;writing-mode:lr-tb;direction:ltr;text-anchor:start;fill:#666666;fill-opacity:1;stroke-width:0.0856704"
     x="41.689865"
     y="16.425428"
     id="text4-52-2-7-9-0"><tspan
       id="tspan4-2-3-5-2-3"
       style="font-style:normal;font-variant:normal;font-weight:300;font-stretch:normal;font-size:4.5691px;font-family:'Futura Std';-inkscape-font-specification:'Futura Std, Light';font-variant-ligatures:normal;font-variant-caps:normal;font-variant-numeric:normal;font-variant-east-asian:normal;fill:#666666;fill-opacity:1;stroke-width:0.0856704"
       x="41.689865"
       y="16.425428">del derecho</tspan></text>
  <rect
     style="fill:#666666;fill-opacity:1;stroke-width:0.0486031"
     id="rect5-7-7-9-9-2"
     width="58.992596"
     height="0.21407127"
     x="5.8124962"
     y="9.2274752" />
</svg>
