<?xml version="1.0" encoding="UTF-8" standalone="no"?>
<!-- Created with Inkscape (http://www.inkscape.org/) -->

<svg
   width="200"
   height="50"
   viewBox="0 0 52.916692 13.229167"
   version="1.1"
   id="svg1"
   xmlns="http://www.w3.org/2000/svg"
   xmlns:svg="http://www.w3.org/2000/svg">
  <defs
     id="defs1" />
  <circle
     id="path1"
     style="fill:#c83737;stroke:#000000;stroke-width:0.264583"
     cx="2.1477935"
     cy="3.9887619"
     r="0.011571184" />
  <path
     style="fill:#fff3f3;fill-opacity:1;stroke:#ffffff;stroke-width:0.264583px;stroke-linecap:butt;stroke-linejoin:miter;stroke-opacity:1"
     d="M 4.25724,6.673513 H 48.670605"
     id="path2" />
  <rect
     style="fill:#0f2353;fill-opacity:1;stroke-width:0.0960285"
     id="rect1-8-9-5-0"
     width="26.400518"
     height="8.7407961"
     x="27.123859"
     y="5.3168111"
     ry="0"
     transform="matrix(1,0,-0.35060811,0.93652227,0,0)" />
  <rect
     style="fill:#8bc53f;fill-opacity:1;stroke-width:0.105992"
     id="rect1-8-9-5-6-1"
     width="36.054646"
     height="7.7972684"
     x="13.276883"
     y="1.3908638"
     ry="0"
     transform="matrix(1,0,-0.53675897,0.84373563,0,0)" />
  <rect
     style="fill:#b8165f;fill-opacity:1;stroke-width:0.101626"
     id="rect1-8-9-3-5-0"
     width="29.174086"
     height="8.8588104"
     x="5.3968434"
     y="2.7107968"
     ry="0"
     transform="matrix(1,0,-0.38228068,0.92404626,0,0)" />
  <g
     id="g1"
     transform="matrix(1.7579606,0,0,1.7579606,-17.4959,-5.3284314)">
    <path
       style="font-weight:bold;font-size:15.3784px;line-height:1.3;font-family:Futura;-inkscape-font-specification:'Futura, Bold';fill:#f5f3ee;stroke-width:0.084229"
       d="m 33.750341,6.2236971 h 0.817584 V 8.5282026 H 33.750341 V 8.2721461 q -0.260549,0.3279335 -0.705277,0.3279335 -0.251564,0 -0.4627,-0.089845 -0.211132,-0.094338 -0.368359,-0.2605492 -0.157229,-0.1662117 -0.247074,-0.3908223 -0.08535,-0.2246107 -0.08535,-0.4896525 0,-0.2470711 0.08535,-0.4671891 0.08535,-0.2246107 0.238089,-0.3908223 0.152734,-0.1662117 0.363869,-0.2605492 0.211133,-0.098827 0.467189,-0.098827 0.431254,0 0.714263,0.3009775 z"
       id="path35-7-6-3" />
    <path
       style="font-weight:bold;font-size:15.3784px;line-height:1.3;font-family:Futura;-inkscape-font-specification:'Futura, Bold';fill:#0f2353;fill-opacity:1;stroke-width:0.084229"
       d="m 32.726115,7.3692108 q 0,0.1123053 0.04043,0.2111355 0.04043,0.094337 0.107812,0.1662117 0.07187,0.071877 0.166212,0.1123053 0.09883,0.040431 0.211135,0.040431 0.107813,0 0.202148,-0.040431 0.09883,-0.040428 0.166211,-0.1123053 0.07188,-0.071874 0.112306,-0.1662117 0.04492,-0.094338 0.04492,-0.2021502 0,-0.1078126 -0.04492,-0.2021501 -0.04043,-0.098827 -0.112306,-0.1707044 -0.06738,-0.071874 -0.166211,-0.1123053 -0.09434,-0.040428 -0.202148,-0.040428 -0.112305,0 -0.211135,0.040428 -0.09434,0.040431 -0.166212,0.1123053 -0.06738,0.071877 -0.107812,0.1662146 -0.04043,0.089842 -0.04043,0.1976546 z"
       id="path34-6-7-0" />
    <path
       style="font-weight:bold;font-size:15.3784px;line-height:1.3;font-family:Futura;-inkscape-font-specification:'Futura, Bold';fill:#f5f3ee;fill-opacity:1;stroke-width:0.084229"
       d="m 31.508728,6.969406 q -0.211133,-0.1437511 -0.426761,-0.1437511 -0.116798,0 -0.220118,0.040428 -0.09883,0.040431 -0.175197,0.116798 -0.07637,0.071877 -0.121288,0.175197 -0.04043,0.098827 -0.04043,0.2246106 0,0.1212907 0.04043,0.2246107 0.04492,0.09883 0.116795,0.175197 0.07637,0.071874 0.17969,0.1123053 0.10332,0.040428 0.220118,0.040428 0.229103,0 0.426761,-0.1572263 V 8.469803 q -0.300978,0.130276 -0.570512,0.130276 -0.251564,0 -0.480668,-0.085352 -0.22461,-0.085352 -0.399804,-0.2425813 -0.170705,-0.161719 -0.274025,-0.381837 -0.103322,-0.2246106 -0.103322,-0.4986349 0,-0.2740272 0.09883,-0.4986379 0.09883,-0.2291004 0.269531,-0.3908223 0.170705,-0.1662116 0.404301,-0.2560565 0.238085,-0.094335 0.50762,-0.094335 0.296485,0 0.548049,0.1257805 z"
       id="path33-8-8-0" />
    <path
       style="font-weight:bold;font-size:15.3784px;line-height:1.3;font-family:Futura;-inkscape-font-specification:'Futura, Bold';fill:#f5f3ee;fill-opacity:1;stroke-width:0.084229"
       d="m 28.346216,5.3387325 q 0,-0.094337 0.03594,-0.175197 0.03594,-0.085352 0.09883,-0.1482439 0.06289,-0.062889 0.143751,-0.098827 0.08535,-0.035939 0.17969,-0.035939 0.09434,0 0.175197,0.035939 0.08535,0.035939 0.148241,0.098827 0.06289,0.062892 0.09883,0.1482439 0.03594,0.080859 0.03594,0.175197 0,0.094335 -0.03594,0.1796868 -0.03594,0.080862 -0.09883,0.1437511 -0.06289,0.062892 -0.148241,0.09883 -0.08086,0.035936 -0.175197,0.035936 -0.09434,0 -0.17969,-0.035936 -0.08086,-0.035939 -0.143751,-0.09883 -0.06289,-0.062889 -0.09883,-0.1437511 -0.03594,-0.085352 -0.03594,-0.1796868 z"
       id="path32-6-0-3" />
    <path
       style="font-weight:bold;font-size:15.3784px;line-height:1.3;font-family:Futura;-inkscape-font-specification:'Futura, Bold';fill:#f5f3ee;fill-opacity:1;stroke-width:0.084229"
       d="m 29.213213,6.2236971 v 2.3045055 h -0.81309 V 6.2236971 Z"
       id="path31-7-6-8" />
    <path
       style="font-weight:bold;font-size:15.3784px;line-height:1.3;font-family:Futura;-inkscape-font-specification:'Futura, Bold';fill:#f5f3ee;fill-opacity:1;stroke-width:0.084229"
       d="m 27.569067,6.9020217 v 1.6261809 h -0.81309 V 6.9020217 H 26.486445 V 6.2236971 h 0.269532 V 5.5318973 h 0.81309 v 0.6917998 h 0.4627 v 0.6783246 z"
       id="path30-1-5-3" />
    <path
       style="font-weight:bold;font-size:15.3784px;line-height:1.3;font-family:Futura;-inkscape-font-specification:'Futura, Bold';fill:#f9f9f9;fill-opacity:1;stroke-width:0.084229"
       d="M 26.327382,6.1224423 25.545737,6.8142421 25.168393,6.5357251 25.810779,5.7495878 Z"
       id="path29-8-7-6" />
    <path
       style="font-weight:bold;font-size:15.3784px;line-height:1.3;font-family:Futura;-inkscape-font-specification:'Futura, Bold';fill:#f5f3ee;fill-opacity:1;stroke-width:0.084229"
       d="M 25.950038,7.151158 V 9.4556636 H 25.136947 V 7.151158 Z"
       id="path28-4-3-0" />
    <path
       style="font-weight:bold;font-size:15.3784px;line-height:1.3;font-family:Futura;-inkscape-font-specification:'Futura, Bold';fill:#f5f3ee;fill-opacity:1;stroke-width:0.084229"
       d="m 23.202653,6.2236971 h 0.81309 v 0.3773471 q 0.130273,-0.2066428 0.318948,-0.3144555 0.188672,-0.1123053 0.440236,-0.1123053 0.03145,0 0.06738,0 0.04043,0 0.08985,0.009 v 0.7771519 q -0.161719,-0.080859 -0.350391,-0.080859 -0.283009,0 -0.426761,0.1707043 -0.139258,0.1662117 -0.139258,0.4896525 v 0.9882846 h -0.81309 z"
       id="path27-9-4-4" />
    <path
       style="font-weight:bold;font-size:15.3784px;line-height:1.3;font-family:Futura;-inkscape-font-specification:'Futura, Bold';fill:#f5f3ee;fill-opacity:1;stroke-width:0.084229"
       d="m 22.739957,6.969406 q -0.211136,-0.1437511 -0.426761,-0.1437511 -0.116798,0 -0.220118,0.040428 -0.09883,0.040431 -0.175197,0.116798 -0.07637,0.071877 -0.121291,0.175197 -0.04043,0.098827 -0.04043,0.2246106 0,0.1212907 0.04043,0.2246107 0.04492,0.09883 0.116798,0.175197 0.07637,0.071874 0.17969,0.1123053 0.10332,0.040428 0.220118,0.040428 0.229103,0 0.426761,-0.1572263 V 8.469803 q -0.30098,0.130276 -0.570512,0.130276 -0.251564,0 -0.480667,-0.085352 Q 21.464167,8.429375 21.28897,8.2721457 21.118266,8.1104267 21.014946,7.8903087 20.911623,7.6656981 20.911623,7.3916738 q 0,-0.2740272 0.09883,-0.4986379 0.09883,-0.2291004 0.269532,-0.3908223 0.170707,-0.1662116 0.4043,-0.2560565 0.238089,-0.094335 0.50762,-0.094335 0.296488,0 0.548052,0.1257805 z"
       id="path26-7-3-0" />
    <path
       style="font-weight:bold;font-size:15.3784px;line-height:1.3;font-family:Futura;-inkscape-font-specification:'Futura, Bold';fill:#f5f3ee;fill-opacity:1;stroke-width:0.084229"
       d="M 18.104007,6.2236971 H 18.92159 V 8.5282026 H 18.104007 V 8.2721461 q -0.260549,0.3279335 -0.705277,0.3279335 -0.251564,0 -0.4627,-0.089845 -0.211132,-0.094338 -0.368362,-0.2605492 -0.157226,-0.1662117 -0.247071,-0.3908223 -0.08535,-0.2246107 -0.08535,-0.4896525 0,-0.2470711 0.08535,-0.4671891 0.08535,-0.2246107 0.238089,-0.3908223 0.152734,-0.1662117 0.363869,-0.2605492 0.211133,-0.098827 0.467189,-0.098827 0.431254,0 0.714263,0.3009775 z"
       id="path25-3-0-9" />
    <path
       style="font-weight:bold;font-size:15.3784px;line-height:1.3;font-family:Futura;-inkscape-font-specification:'Futura, Bold';fill:#0f2353;fill-opacity:1;stroke-width:0.084229"
       d="m 17.079781,7.3692108 q 0,0.1123053 0.04043,0.2111355 0.04043,0.094337 0.107812,0.1662117 0.07187,0.071877 0.166212,0.1123053 0.09883,0.040431 0.211132,0.040431 0.107816,0 0.202151,-0.040431 0.09883,-0.040428 0.166211,-0.1123053 0.07188,-0.071874 0.112306,-0.1662117 0.04492,-0.094338 0.04492,-0.2021502 0,-0.1078126 -0.04492,-0.2021501 -0.04043,-0.098827 -0.112306,-0.1707044 -0.06738,-0.071874 -0.166211,-0.1123053 -0.09434,-0.040428 -0.202151,-0.040428 -0.112305,0 -0.211132,0.040428 -0.09434,0.040431 -0.166212,0.1123053 -0.06738,0.071877 -0.107812,0.1662146 -0.04043,0.089842 -0.04043,0.1976546 z"
       id="path24-1-4-2" />
    <path
       style="font-weight:bold;font-size:15.3784px;line-height:1.3;font-family:Futura;-inkscape-font-specification:'Futura, Bold';fill:#f5f3ee;fill-opacity:1;stroke-width:0.084229"
       d="M 15.768062,4.7996663 V 8.5282026 H 14.954971 V 4.7996663 Z"
       id="text1-39-0-8-4" />
    <text
       xml:space="preserve"
       style="font-style:normal;font-variant:normal;font-weight:bold;font-stretch:normal;font-size:1.49952px;line-height:1.3;font-family:Futura;-inkscape-font-specification:'Futura, Bold';font-variant-ligatures:normal;font-variant-caps:normal;font-variant-numeric:normal;font-variant-east-asian:normal;text-align:start;writing-mode:lr-tb;direction:ltr;text-anchor:start;fill:#f5f3ee;fill-opacity:1;stroke-width:0.0281159"
       x="26.769678"
       y="9.7203484"
       id="text4-52-2-7-9"><tspan
         id="tspan4-2-3-5-2"
         style="font-style:normal;font-variant:normal;font-weight:300;font-stretch:normal;font-size:1.49952px;font-family:'Futura Std';-inkscape-font-specification:'Futura Std, Light';font-variant-ligatures:normal;font-variant-caps:normal;font-variant-numeric:normal;font-variant-east-asian:normal;fill:#f5f3ee;fill-opacity:1;stroke-width:0.0281159"
         x="26.769678"
         y="9.7203484">del derecho</tspan></text>
    <rect
       style="fill:#f5f3ee;fill-opacity:1;stroke-width:0.0159509"
       id="rect5-7-7-9-9"
       width="19.36062"
       height="0.070255473"
       x="14.995182"
       y="7.3580742" />
  </g>
</svg>
